<svg xmlns="http://www.w3.org/2000/svg" width="36.5px" height="36.5px">
<path fill-rule="evenodd"  stroke="rgb(2, 89, 85)" stroke-width="3px" stroke-linecap="butt" stroke-linejoin="miter" fill="none" d="M17.500,1.500 C26.337,1.500 33.500,8.663 33.500,17.500 C33.500,26.337 26.337,33.500 17.500,33.500 C8.663,33.500 1.500,26.337 1.500,17.500 C1.500,8.663 8.663,1.500 17.500,1.500 Z"/>
<path style="transform:translate(7px, 10px)" fill-rule="evenodd" fill="rgb(0, 145, 124)" d="M17.309,2.463 L17.309,14.306 L15.464,14.306 L15.464,2.463 L11.495,2.463 L11.495,0.904 L21.278,0.904 L21.278,2.463 L17.309,2.463 ZM7.660,8.154 L2.031,8.154 L2.031,14.306 L0.206,14.306 L0.206,0.904 L2.031,0.904 L2.031,6.575 L7.660,6.575 L7.660,0.904 L9.486,0.904 L9.486,14.306 L7.660,14.306 L7.660,8.154 Z"/>
</svg>